# xmcd
#
# Track frame offsets: 
#        150
#        10960
#        28115
#        35522
#        51017
#        67075
#        72882
#        96865
#        102205
#        122025
#        127892
#        148597
#        156007
#        170072
#        189102
#        194407
#        209615
#        217905
#        232700
#        235605
#        257067
#        274255
#        280540
#        303455
#
# Disc length: 4586 seconds
#
# Revision: 0
# Processed by: cddbd v1.5.2PL0 Copyright (c) Steve Scherf et al.
# Submitted via: ExactAudioCopyFreeDBPlugin 1.0
#
DISCID=5311e818
DTITLE=Luke - Freak For Life 6996
DYEAR=1994
DGENRE=Rap
TTITLE0=Freak For Life
TTITLE1=It's Your Birthday
TTITLE2=Beat Your Lover
TTITLE3=That's How I Feel
TTITLE4=Come On
TTITLE5=Clip On Clicks
TTITLE6=Maga-Mix
TTITLE7=Where's the Tittie
TTITLE8=Some Ol Bullshit
TTITLE9=You Have Been Bad
TTITLE10=Pre-Masterbatorial
TTITLE11=Anal S.
TTITLE12=Where Them Ho's At
TTITLE13=Represent
TTITLE14=Where Are The Weave
TTITLE15=All My Ex's
TTITLE16=Out Of Control
TTITLE17=Freaky Business
TTITLE18=Got To Get Some Work Done
TTITLE19=Welcome To The Quiet Storm
TTITLE20=Cool (Some Cool Shit)
TTITLE21=JC's Detailed Car Wash
TTITLE22=Movin' Along
TTITLE23=Beat Your Lover (Reprise)
EXTD=
EXTT0=
EXTT1=
EXTT2=
EXTT3=
EXTT4=
EXTT5=
EXTT6=
EXTT7=
EXTT8=
EXTT9=
EXTT10=
EXTT11=
EXTT12=
EXTT13=
EXTT14=
EXTT15=
EXTT16=
EXTT17=
EXTT18=
EXTT19=
EXTT20=
EXTT21=
EXTT22=
EXTT23=
PLAYORDER=
